<?xml version="1.0" encoding="utf-8"?>
<!-- Generator: Adobe Illustrator 24.0.3, SVG Export Plug-In . SVG Version: 6.00 Build 0)  -->
<svg version="1.1" id="Слой_1" xmlns="http://www.w3.org/2000/svg" xmlns:xlink="http://www.w3.org/1999/xlink" x="0px" y="0px"
	 viewBox="0 0 667.5 194.3" style="enable-background:new 0 0 667.5 194.3;" xml:space="preserve">
<g>
	<path d="M80.4,24.4H67.5c-23.6,0-36.1,11.9-36.1,29.4c0,19.9,8.6,29.2,26.3,41l14.6,9.7l-42,62.4H-1l37.7-55.8
		C15,95.8,2.8,80.9,2.8,55.5C2.8,23.7,25,2.1,67.3,2.1h42V167H80.4V24.4z"/>
	<path d="M343.6,47.7h-82.9v10.2c0,29.2-1.9,66.9-11.9,86.8H240v49.6h26.3V167H330v27.3h26.3v-49.6h-12.7L343.6,47.7L343.6,47.7z
		 M315.2,144.7h-40.1c7.9-18,10-50.5,10-71.2V70h30.1V144.7z"/>
	<polygon points="199.6,94.9 161.6,94.9 161.6,47.7 133.2,47.7 133.2,167 161.6,167 161.6,117.2 199.6,117.2 199.6,167 228,167 
		228,47.7 199.6,47.7 	"/>
	<path d="M639.5,67.6c11,0,21.7,3.8,27.5,7.4V51c-6-3.3-16.5-5.7-30.6-5.7c-36.3,0-55.2,25.9-55.2,62.2c0,39.9,18.4,61.9,56.4,61.9
		c13.1,0,22.5-2.4,29.4-7.4v-23c-7.2,5-15.8,8.1-27.7,8.1c-20.3,0-28.7-15.7-28.7-40.3C610.7,80.9,620.9,67.6,639.5,67.6"/>
	<polygon points="577.5,47.7 548.8,47.7 508.7,102.7 508.7,47.7 480.2,47.7 480.2,167 508.7,167 508.7,108.4 550.7,167 582.9,167 
		537.3,102.7 	"/>
	<path d="M414.3,45.3c-34.6,0-51.1,26.3-51.1,62.4c0,41.5,20.5,61.7,56.8,61.7c18.2,0,31.5-4.7,39.9-10.4v-23
		c-8.8,5.9-23.6,11.2-37.5,11.2c-20.8,0-28.7-9.7-29.9-29.7H461v-14.9C461.1,61,442.7,45.3,414.3,45.3 M432.2,96.6h-39.6
		c0.7-19,7.6-28.9,21.3-28.9c14.1,0,18.4,11.6,18.4,26.6L432.2,96.6L432.2,96.6z"/>
</g>
</svg>
