<svg width="32" height="22" viewBox="0 0 32 22" fill="none" xmlns="http://www.w3.org/2000/svg">
<path fill-rule="evenodd" clip-rule="evenodd" d="M0.271322 0.993531C0.0988289 1.28916 0 1.63304 0 2V20C0 21.1046 0.895431 22 2 22H30C31.1046 22 32 21.1046 32 20V2C32 1.63304 31.9012 1.28916 31.7287 0.993529L17.6395 12.441C16.6843 13.2171 15.3157 13.2171 14.3605 12.441L0.271322 0.993531ZM30.8282 0.179001C30.5758 0.0640426 30.2954 0 30 0H2C1.7046 0 1.42415 0.0640429 1.1718 0.179002L15.1172 11.5096C15.6315 11.9275 16.3685 11.9275 16.8828 11.5096L30.8282 0.179001Z" fill="#1C1C1C"/>
</svg>
