<svg width="32" height="30" viewBox="0 0 32 30" fill="none" xmlns="http://www.w3.org/2000/svg">
<path d="M31.3597 0.451501C31.1061 0.230011 30.7973 0.0829273 30.4668 0.0261993C30.1364 -0.0305287 29.7969 0.00526474 29.4851 0.129698L1.16791 11.3731C0.79774 11.5201 0.484608 11.7843 0.275375 12.1261C0.0661422 12.4679 -0.0279409 12.869 0.0072045 13.2694C0.0423499 13.6698 0.204834 14.0479 0.470342 14.3472C0.735851 14.6465 1.09011 14.8508 1.4801 14.9296L9.16622 16.4833V26.0719C9.16237 26.4408 9.26882 26.8022 9.47162 27.109C9.67441 27.4157 9.96412 27.6534 10.3028 27.791C10.5297 27.887 10.7731 27.9367 11.0191 27.9374C11.2595 27.9366 11.4973 27.8877 11.7188 27.7933C11.9403 27.6989 12.141 27.561 12.3093 27.3875L16.697 22.9531L23.1708 28.711C23.5044 29.0104 23.935 29.176 24.3811 29.1765C24.5751 29.1762 24.7678 29.1453 24.9523 29.0849C25.2566 28.9873 25.5302 28.8109 25.746 28.5731C25.9617 28.3353 26.112 28.0445 26.1818 27.7296L31.953 2.27737C32.0283 1.94729 32.0129 1.60266 31.9083 1.28081C31.8037 0.958965 31.614 0.672174 31.3597 0.451501ZM1.22987 13.1598C1.2146 13.0258 1.2445 12.8905 1.31472 12.7758C1.38493 12.6611 1.49137 12.5737 1.61683 12.5277L27.5739 2.2213L9.6376 15.3135L1.72081 13.7133C1.5893 13.6903 1.46931 13.6231 1.38022 13.5227C1.29114 13.4223 1.23816 13.2944 1.22987 13.1598ZM11.4413 26.5104C11.3555 26.5972 11.2462 26.6562 11.1271 26.6802C11.0081 26.7041 10.8847 26.6918 10.7725 26.6449C10.6604 26.598 10.5645 26.5185 10.4971 26.4165C10.4297 26.3145 10.3937 26.1945 10.3937 26.0719V17.3469L15.7737 22.1319L11.4413 26.5104ZM30.7565 2.00024L24.9853 27.4525C24.9616 27.5572 24.9113 27.6539 24.8395 27.7331C24.7676 27.8123 24.6766 27.8713 24.5754 27.9043C24.4743 27.9372 24.3663 27.9431 24.2623 27.9212C24.1582 27.8994 24.0615 27.8506 23.9817 27.7796L10.7627 16.0227L30.6573 1.50104C30.7097 1.57149 30.7458 1.6529 30.7629 1.73928C30.7801 1.82566 30.7779 1.91483 30.7565 2.00024Z" fill="#1C1C1C"/>
</svg>
