<?xml version="1.0" encoding="utf-8"?>
<!-- Generator: Adobe Illustrator 24.0.3, SVG Export Plug-In . SVG Version: 6.00 Build 0)  -->
<svg version="1.1" id="Слой_1" xmlns="http://www.w3.org/2000/svg" xmlns:xlink="http://www.w3.org/1999/xlink" x="0px" y="0px"
	 viewBox="0 0 439.3 159.3" style="enable-background:new 0 0 439.3 159.3;" xml:space="preserve">
<style type="text/css">
	.st0{clip-path:url(#SVGID_2_);}
</style>
<g>
	<defs>
		<rect id="SVGID_1_" x="-30.7" y="-46.5" width="500" height="250"/>
	</defs>
	<clipPath id="SVGID_2_">
		<use xlink:href="#SVGID_1_"  style="overflow:visible;"/>
	</clipPath>
	<g class="st0">
		<polygon points="279.7,134.2 282.1,134.2 282.1,150.6 294.4,134.2 296.4,134.2 296.4,154.5 294.1,154.5 294.1,138.1 281.7,154.5 
			279.7,154.5 		"/>
		<polygon points="302.9,134.2 318.9,134.2 318.9,154.5 316.6,154.5 316.6,136.4 305.3,136.4 305.3,154.5 302.9,154.5 		"/>
		<polygon points="325.4,134.2 341.4,134.2 341.4,154.5 339.1,154.5 339.1,136.4 327.8,136.4 327.8,154.5 325.4,154.5 		"/>
		<polygon points="347.9,134.2 350.2,134.2 350.2,150.6 362.6,134.2 364.6,134.2 364.6,154.5 362.3,154.5 362.3,138.1 349.9,154.5 
			347.9,154.5 		"/>
		<path d="M388,143.5c2.8,0,4.4-1.2,4.4-3.6c0-2.3-1.6-3.6-4.4-3.6h-6v7.2H388z M379.6,134.2h8.6c4.2,0,6.6,2.3,6.6,5.7
			c0,3.4-2.4,5.8-6.6,5.8h-6.2v8.8h-2.3V134.2z"/>
		<path d="M410.1,147l-4.4-9.9l-4.4,9.9H410.1z M404.6,134.1h2.2l9,20.4h-2.5l-2.5-5.5h-10.4l-2.4,5.5h-2.5L404.6,134.1z"/>
		<polygon points="420.3,134.2 422.7,134.2 422.7,142.6 434.5,142.6 434.5,134.2 436.8,134.2 436.8,154.5 434.5,154.5 434.5,144.7 
			422.7,144.7 422.7,154.5 420.3,154.5 		"/>
		<polygon points="406.3,49.7 394.2,62.3 370.9,86.5 370.6,5 360.4,3 334,73.3 333.8,5 325.2,2.5 285.9,66.7 285.8,23.4 278.5,20.5 
			233.9,71.7 233.7,23.4 227.2,20.8 181.8,72.8 181.7,23.4 176,21.1 129.8,74 129.6,23.4 124.4,21.9 83.4,90.5 83.1,5 78.8,4.2 
			49.9,88.4 49.6,5 46.8,3.9 1.9,54 6.4,55 46.4,9.2 46.1,99.7 49.8,100.4 78.6,18.2 78.3,99.7 83,101.1 123.9,33.6 123.8,82.1 
			129,84.2 175.1,32.1 174.9,82.1 181,84.5 226.3,33.3 226.1,82.1 232.9,84.8 277.4,34.5 277.3,82.1 285.3,84.5 324.5,21.4 
			324.2,100.5 333.8,102.3 359.9,34 359.7,100.5 369.3,104.5 402.4,70.6 418.8,53.7 		"/>
	</g>
</g>
</svg>
