<svg xmlns="http://www.w3.org/2000/svg" fill="none" viewBox="0 0 136 30"><path fill="#000" d="M13.345 25.089h.961l.927-7.52h-.94l.04-.33c1.106 0 1.532-.034 1.614-.11l.11.11-.185 1.44c.24-.918.927-1.55 1.847-1.55 1.311 0 2.121 1.022 1.977 2.791-.144 1.693-1.181 2.893-2.458 2.88-.845-.008-1.373-.392-1.627-.892l-.385 3.18h1.222l-.04.33h-3.111l.048-.33zm5.355-5.183c.117-1.515-.206-2.365-1.167-2.378-.892-.007-1.517.994-1.668 2.303-.007.068-.007.144-.02.206-.166 1.796.39 2.406 1.331 2.42.927 0 1.421-1.18 1.524-2.55zM20.753 24.273c0-.39.254-.754.735-.754.405 0 .61.254.61.583 0 .432-.28.72-.61.76.165.206.419.33.762.33 1.126 0 1.504-.885 1.668-2.194l.234-1.769c-.35.994-1.044 1.454-1.909 1.454S20.87 22.14 21 21.037l.426-3.475h-.94l.04-.33c1.106 0 1.669-.034 1.758-.109l.11.11-.453 3.79c-.09.741.096 1.146.632 1.146.7 0 1.407-.453 1.634-2.407l.26-2.207h-.72l.04-.33c1.106 0 1.457-.033 1.539-.109l.11.11-.632 5.134c-.295 2.331-1.126 3.14-2.568 3.14-.741.014-1.483-.404-1.483-1.227zM26.417 20.002c.206-1.857 1.318-2.879 2.657-2.879.755 0 1.531.418 1.538 1.227 0 .39-.24.754-.72.754-.406 0-.619-.253-.619-.582-.014-.432.275-.72.598-.761-.172-.206-.447-.33-.804-.33-.927 0-1.503.96-1.668 2.496-.145 1.31.171 2.481 1.256 2.481.845 0 1.319-.678 1.504-1.391l.316.075c-.282 1.015-.831 1.694-1.957 1.694-1.531.006-2.273-1.248-2.101-2.784zM31.36 20.002c.206-1.857 1.319-2.879 2.657-2.879.756 0 1.531.418 1.538 1.227 0 .39-.24.754-.72.754-.406 0-.618-.253-.618-.582-.014-.432.274-.72.597-.761-.172-.206-.447-.33-.803-.33-.927 0-1.504.96-1.669 2.496-.144 1.31.172 2.481 1.257 2.481.844 0 1.318-.678 1.503-1.391l.316.075c-.282 1.015-.83 1.694-1.957 1.694-1.53.006-2.272-1.248-2.1-2.784zM39.03 21.332c-.068-.5-.068-1.296-.878-1.296h-.261l-.33 2.647h-.94l.631-5.128h-.94l.04-.33c1.106 0 1.683-.033 1.772-.109l.11.11-.309 2.475h.337c1.42 0 .782-2.585 2.41-2.585.308 0 .755.172.775.658 0 .309-.171.706-.707.706-.391 0-.584-.294-.584-.596 0-.055 0-.117.021-.185-.542.418-.44 1.79-1.318 2.2.776.24 1.091.72 1.18 1.406.07.514.076 1.014.516 1.014.254 0 .467-.336.59-1.295h.295c-.144 1.165-.391 1.768-1.297 1.768-.735 0-.989-.5-1.113-1.46zM42.16 19.865c.193-1.714 1.353-2.735 2.685-2.735s2.369 1.227 2.17 2.893c-.185 1.714-1.332 2.776-2.664 2.776-1.339-.007-2.383-1.282-2.19-2.934zm3.88.15c.165-1.569-.096-2.563-1.23-2.563-1.125 0-1.496.802-1.681 2.406-.165 1.57.096 2.605 1.242 2.605 1.126 0 1.497-.85 1.669-2.447zM47.852 21.49c0-1.885 2.589-1.2 2.589-3.106 0-.582-.275-.925-.83-.925-.687 0-1.024.59-1.182 1.268h-.33c.207-1.11.742-1.59 1.724-1.59.879 0 1.538.541 1.538 1.343 0 1.92-2.575 1.29-2.575 3.05 0 .536.33.947.948.947.707 0 1.243-.494 1.373-1.433h.33c-.165 1.131-.708 1.755-1.889 1.755-1.07-.007-1.696-.46-1.696-1.31zM52.295 19.865c.192-1.714 1.352-2.735 2.684-2.735 1.333 0 2.37 1.227 2.17 2.893-.185 1.714-1.332 2.776-2.664 2.776-1.339-.007-2.375-1.282-2.19-2.934zm3.886.15c.165-1.569-.096-2.563-1.229-2.563-1.126 0-1.497.802-1.682 2.406-.172 1.577.096 2.605 1.243 2.605 1.126 0 1.49-.85 1.668-2.447zM60.432 20.924h.295c-.13 1.035.075 1.296.254 1.296.233 0 .282-.185.59-.885.31-.72.584-.89 1.669-1.343-.996-.035-1.682-.542-1.682-1.42 0-.89.7-1.555 2.066-1.555.783 0 1.181.315 1.422.699l.535-.7h.165l-.68 5.56h-.934l.316-2.543h-.467c-.865 0-1.187.706-1.538 1.535-.24.583-.535 1.111-1.256 1.111-.707.014-.92-.445-.755-1.755zm4.05-1.165l.145-1.18c.096-.808-.357-1.227-1.01-1.227-.542 0-1.084.37-1.084 1.228 0 .754.542 1.179 1.345 1.179h.605zM72.275 20.575l.384-3.113h-.947l.041-.329c1.106 0 1.668-.034 1.758-.11l.11.11-.282 2.33c.206-.095.66-.28 1.27-.28.886 0 1.717.582 1.559 1.741-.144 1.104-1.071 1.769-2.238 1.769-1.298 0-1.82-.768-1.655-2.119zm2.932.35c.089-.96-.35-1.345-1.037-1.345a1.61 1.61 0 0 0-.872.275l-.09.74c-.144 1.18.035 1.741.818 1.741.638.007 1.105-.617 1.18-1.412zm1.442.465l.514-4.264h.941l-.535 4.429c-.07.582.034.774.315.774.385 0 .618-.438.742-1.391h.295c-.15 1.056-.357 1.755-1.311 1.755-.632 0-1.085-.33-.961-1.303zM68.568 22.68c1.229 0 2.252-.501 2.252-1.715 0-.72-.66-1.158-1.408-1.234.605-.13 1.408-.569 1.408-1.453 0-.905-.803-1.275-1.572-1.275-.605 0-1.113.24-1.387.494l-.206-.419h-.296l-.233 1.824h.309c.295-.98.714-1.515 1.504-1.515.515 0 .899.308.899.87 0 .83-.405 1.35-1.263 1.35H68.1l-.028.33h.46c.893 0 1.312.329 1.312 1.07 0 .788-.494 1.343-1.332 1.343-.584 0-1.01-.171-1.23-.548.406-.041.674-.316.674-.665 0-.281-.144-.535-.55-.535-.473 0-.714.35-.714.74-.006.727.605 1.337 1.875 1.337zM82.203 21.226c-.068-.5-.068-1.296-.879-1.296h-.26l-.33 2.646h-.94l.631-5.128h-.94l.04-.329c1.106 0 1.683-.034 1.772-.11l.11.11-.31 2.475h.337c1.422 0 .783-2.584 2.41-2.584.31 0 .756.171.776.658 0 .308-.172.706-.707.706-.391 0-.584-.295-.584-.596 0-.055 0-.117.02-.185-.541.418-.439 1.789-1.317 2.2.776.24 1.091.72 1.18 1.405.07.514.076 1.015.516 1.015.254 0 .466-.336.59-1.296h.295c-.144 1.166-.391 1.769-1.297 1.769-.742.007-.99-.494-1.113-1.46zM85.203 19.8c.165-1.454 1.092-2.777 2.63-2.777.776 0 1.188.515 1.373 1.111l.776-1.11h.165l-.557 4.538c-.068.5.035.774.35.774.35 0 .577-.336.708-1.405h.302c-.165 1.152-.357 1.769-1.202 1.769-.762 0-.947-.521-.851-1.296l.075-.61c-.309 1.104-.995 1.906-1.998 1.906-1.256-.007-1.97-1.125-1.771-2.9zm3.694 0c.007-.117.034-.233.041-.336.11-1.31-.24-2.09-1.112-2.105-.968-.007-1.483 1.104-1.627 2.427-.165 1.604.171 2.44.96 2.44 1.01.007 1.56-1.13 1.738-2.426zM18.407 5.49h.81v6.43h-.81V8.986h-3.598v2.934H14V5.49h.81v2.742h3.598V5.49zM25.204 11.92l-.666-1.974h-2.822l-.666 1.975h-.83l2.231-6.43h1.366l2.239 6.43h-.852zm-2.265-5.6l-.982 2.893h2.327l-.981-2.893h-.364zM32.29 13.497v-1.576h-5.238V5.49h.81v5.69h3.488V5.49h.81v5.69h.934v2.316h-.803zM34.158 5.49h.797v5.45h.199l2.993-5.45h1.27v6.43h-.796V6.47h-.199l-2.994 5.45h-1.27V5.49zM43.736 5.373c.947 0 1.682.315 2.21.946.53.63.797 1.426.797 2.386 0 .96-.268 1.755-.796 2.385-.529.631-1.27.946-2.211.946-.948 0-1.69-.315-2.218-.946-.529-.63-.79-1.426-.79-2.392 0-.967.261-1.762.79-2.393.529-.617 1.27-.932 2.218-.932zm-1.634 5.176c.37.5.906.747 1.634.747.728 0 1.27-.247 1.634-.747.37-.5.55-1.118.55-1.844 0-.734-.18-1.344-.55-1.844-.37-.5-.906-.748-1.634-.748-.728 0-1.27.247-1.634.748-.371.5-.55 1.117-.55 1.844 0 .733.186 1.35.55 1.844zM52.47 5.49h.81v6.43h-.81V8.986h-3.598v2.934h-.81V5.49h.81v2.742h3.597V5.49zM59.267 11.92L58.6 9.947h-2.822l-.666 1.975h-.83l2.23-6.43h1.367l2.238 6.43h-.851zM57 6.32l-.982 2.893h2.328l-.982-2.893h-.364zM60.578 11.118h.172c.302 0 .529-.082.693-.233.165-.157.289-.473.378-.953.09-.48.137-1.172.137-2.084V5.49h4.23v6.43h-.81V6.23h-2.65v1.776c0 1.042-.07 1.858-.214 2.427-.144.576-.35.966-.618 1.179-.274.206-.652.315-1.133.315h-.178l-.007-.809zM70.335 11.92h-2.67V5.49h.81v2.454h1.853c.707 0 1.257.179 1.648.528.391.35.584.837.584 1.454 0 .63-.193 1.117-.584 1.467-.378.35-.927.527-1.641.527zm-1.86-.72h1.716c1.043 0 1.558-.424 1.558-1.268 0-.843-.521-1.26-1.558-1.26h-1.717V11.2zM78.271 5.49h.81v6.43h-.81V8.986h-3.597v2.934h-.81V5.49h.81v2.742h3.597V5.49zM83.277 11.92h-2.554V5.49h.81v2.454h1.744c.707 0 1.256.179 1.648.528.391.35.583.837.583 1.454 0 .63-.192 1.117-.583 1.467-.385.35-.941.527-1.648.527zm-1.744-.72h1.593c1.043 0 1.558-.424 1.558-1.268 0-.843-.522-1.26-1.558-1.26h-1.593V11.2zm4.84-5.71h.81v6.43h-.81V5.49zM88.832 5.49h.797v5.45h.199l2.993-5.45h1.27v6.43h-.796V6.47h-.2l-2.993 5.45h-1.27V5.49zm3.543-1.714h.659c-.014.44-.165.782-.453 1.029-.288.246-.666.37-1.126.37-.453 0-.817-.124-1.106-.37-.288-.247-.439-.59-.453-1.029h.66c.006.254.089.453.253.597.165.144.378.22.646.22s.494-.07.659-.22c.172-.144.254-.343.26-.597zM98.629 11.782v-6.43h.81V8.1h1.943l1.291-2.75h.858l-1.442 3.127 1.525 3.304h-.859l-1.366-2.941h-1.943v2.94h-.817zM107.321 5.235c.947 0 1.682.316 2.211.946.528.631.796 1.426.796 2.386 0 .96-.268 1.755-.796 2.386-.529.63-1.271.946-2.211.946-.948 0-1.689-.316-2.218-.946-.529-.631-.79-1.426-.79-2.393 0-.966.261-1.762.79-2.392.529-.617 1.27-.933 2.218-.933zm-1.627 5.176c.37.5.906.747 1.634.747.727 0 1.27-.246 1.634-.747.371-.5.549-1.117.549-1.844 0-.734-.178-1.344-.549-1.844-.371-.5-.907-.747-1.634-.747-.728 0-1.271.247-1.634.747-.371.5-.55 1.117-.55 1.844-.007.734.179 1.35.55 1.844zM111.646 5.352h2.719c.694 0 1.236.17 1.614.507.378.336.57.802.57 1.412 0 .61-.192 1.09-.57 1.426-.385.343-.92.507-1.614.507h-1.908v2.578h-.811v-6.43zm.811 3.132h1.778c.996 0 1.497-.404 1.497-1.206 0-.802-.501-1.207-1.497-1.207h-1.778v2.413zM117.84 5.352h5.156v6.43h-.81v-5.69h-3.536v5.69h-.81v-6.43zM126.642 8.731h.254l1.613-3.38h.845l-3.076 6.43h-.838l.92-1.926-2.382-4.503h.872l1.792 3.38zM134.455 9.95h.858c-.137.597-.425 1.07-.865 1.42-.439.35-1.002.528-1.689.528-.941 0-1.668-.309-2.19-.933-.522-.617-.783-1.419-.783-2.406 0-.98.268-1.789.797-2.406.528-.617 1.256-.932 2.19-.932.645 0 1.195.157 1.62.48.433.322.714.76.845 1.316h-.859c-.254-.706-.789-1.063-1.613-1.063-.707 0-1.243.247-1.614.747-.37.5-.549 1.118-.549 1.845 0 .74.179 1.357.543 1.85.363.494.899.74 1.606.74.447 0 .81-.102 1.099-.315.302-.198.501-.493.604-.87zM0 0v29.286h1.016V0H0zM6.098 13.462c.37-.588.56-1.336.56-2.225V3.53c0-.942.24-1.658.729-2.126C8.01.798 8.933.629 9.649.629V0C8.293 0 7.332.136 6.486.913c-.64.592-.935 1.485-.935 2.616v7.708c0 .983-.24 1.711-.725 2.221-.488.51-1.537.86-2.287.86v.674c.75 0 1.799.35 2.287.86.485.51.725 1.238.725 2.221v7.684c0 1.13.294 2.023.935 2.615.846.778 1.807.914 3.163.914v-.63c-.716 0-1.639-.168-2.262-.773-.489-.469-.729-1.184-.729-2.126v-7.684c0-.888-.19-1.637-.56-2.225-.337-.53-.825-.93-1.449-1.193.624-.263 1.112-.662 1.45-1.193z"/></svg>