<svg fill="none" xmlns="http://www.w3.org/2000/svg" viewBox="0 0 114 57">
    <path d="M0 0v57h2.03V0H0ZM21.836 41.677h1.088l1.05-8.782H22.91l.047-.384c1.251 0 1.734-.04 1.827-.128l.124.128-.21 1.681c.273-1.073 1.05-1.81 2.092-1.81 1.485 0 2.403 1.194 2.24 3.26-.164 1.976-1.338 3.377-2.784 3.361-.957-.008-1.555-.456-1.843-1.04l-.436 3.714h1.385l-.047.385H21.78l.055-.385Zm6.065-6.052c.132-1.77-.233-2.762-1.322-2.778-1.01-.008-1.718 1.161-1.89 2.69-.007.08-.007.168-.023.24-.186 2.098.444 2.81 1.509 2.826 1.05 0 1.61-1.377 1.726-2.978ZM30.227 40.725c0-.457.287-.881.832-.881.458 0 .692.296.692.68 0 .505-.32.841-.692.889.186.24.474.384.863.384 1.275 0 1.703-1.032 1.89-2.561l.264-2.066c-.397 1.16-1.182 1.697-2.162 1.697s-1.555-.632-1.407-1.921l.482-4.059h-1.066l.047-.384c1.252 0 1.89-.04 1.99-.128l.125.128-.513 4.427c-.101.864.109 1.337.715 1.337.794 0 1.595-.529 1.851-2.81l.296-2.578h-.817l.047-.384c1.252 0 1.648-.04 1.742-.128l.124.128-.715 5.996c-.335 2.722-1.276 3.667-2.909 3.667-.84.016-1.68-.473-1.68-1.433ZM36.642 35.737c.233-2.17 1.493-3.362 3.01-3.362.855 0 1.733.488 1.741 1.433 0 .456-.272.88-.816.88-.46 0-.7-.296-.7-.68-.016-.505.31-.84.676-.889-.194-.24-.505-.384-.91-.384-1.05 0-1.703 1.12-1.89 2.914-.163 1.529.195 2.898 1.424 2.898.956 0 1.493-.793 1.703-1.625l.358.088c-.32 1.185-.941 1.977-2.217 1.977-1.734.008-2.574-1.457-2.38-3.25ZM42.24 35.737c.234-2.17 1.493-3.362 3.01-3.362.855 0 1.734.488 1.742 1.433 0 .456-.272.88-.817.88-.459 0-.7-.296-.7-.68-.015-.505.311-.84.677-.889-.194-.24-.506-.384-.91-.384-1.05 0-1.703 1.12-1.89 2.914-.163 1.529.195 2.898 1.424 2.898.956 0 1.492-.793 1.702-1.625l.358.088c-.319 1.185-.94 1.977-2.216 1.977-1.734.008-2.574-1.457-2.38-3.25ZM50.927 37.29c-.078-.584-.078-1.513-.996-1.513h-.295l-.374 3.09h-1.065l.715-5.988h-1.065l.047-.384c1.252 0 1.905-.04 2.006-.128l.125.128-.35 2.89h.38c1.61 0 .887-3.018 2.73-3.018.35 0 .856.2.879.768 0 .36-.195.825-.801.825-.443 0-.661-.344-.661-.697 0-.064 0-.136.023-.216-.614.489-.498 2.09-1.493 2.57.879.28 1.237.84 1.338 1.641.077.6.085 1.185.583 1.185.288 0 .529-.392.669-1.513h.334c-.163 1.36-.443 2.065-1.47 2.065-.832 0-1.12-.584-1.26-1.705ZM54.473 35.577c.217-2.001 1.532-3.194 3.04-3.194 1.509 0 2.683 1.433 2.458 3.378-.21 2.002-1.51 3.242-3.018 3.242-1.516-.008-2.698-1.497-2.48-3.426Zm4.393.176c.187-1.833-.109-2.994-1.392-2.994-1.275 0-1.695.937-1.905 2.81-.187 1.833.109 3.042 1.408 3.042 1.275 0 1.695-.992 1.89-2.858ZM60.92 37.474c0-2.201 2.931-1.4 2.931-3.626 0-.68-.311-1.08-.94-1.08-.779 0-1.16.688-1.338 1.48h-.374c.234-1.297.84-1.857 1.952-1.857.996 0 1.742.632 1.742 1.569 0 2.242-2.916 1.505-2.916 3.563 0 .624.373 1.104 1.073 1.104.801 0 1.408-.576 1.555-1.673h.374c-.187 1.321-.801 2.05-2.139 2.05-1.213-.008-1.92-.537-1.92-1.53ZM65.95 35.577c.218-2.001 1.532-3.194 3.04-3.194 1.51 0 2.684 1.433 2.458 3.378-.21 2.002-1.509 3.242-3.017 3.242-1.517-.008-2.69-1.497-2.48-3.426Zm4.401.176c.187-1.833-.108-2.994-1.391-2.994-1.276 0-1.696.937-1.906 2.81-.194 1.841.11 3.042 1.408 3.042 1.275 0 1.687-.992 1.89-2.858ZM22.45 49.851h.334c-.147 1.209.086 1.513.288 1.513.264 0 .319-.216.669-1.032.35-.841.66-1.041 1.89-1.57-1.128-.04-1.906-.632-1.906-1.657 0-1.04.793-1.817 2.34-1.817.887 0 1.338.368 1.61.817l.607-.817h.187l-.77 6.493H26.64L27 48.81h-.529c-.98 0-1.345.824-1.742 1.793-.272.68-.606 1.297-1.423 1.297-.8.016-1.042-.52-.855-2.05Zm4.588-1.36.163-1.378c.11-.944-.404-1.433-1.143-1.433-.614 0-1.229.432-1.229 1.433 0 .88.615 1.377 1.525 1.377h.684ZM35.864 49.443l.436-3.635h-1.073l.046-.384c1.252 0 1.89-.04 1.99-.128l.125.128-.319 2.722a3.32 3.32 0 0 1 1.44-.329c1.002 0 1.943.68 1.764 2.034-.163 1.289-1.213 2.065-2.535 2.065-1.47 0-2.06-.896-1.874-2.473Zm3.32.408c.102-1.12-.396-1.57-1.173-1.57-.444 0-.802.193-.988.321l-.101.865c-.163 1.377.039 2.033.925 2.033.723.008 1.252-.72 1.338-1.65Zm1.634.544.583-4.98h1.065l-.606 5.172c-.078.68.039.905.357.905.436 0 .7-.512.84-1.625h.335c-.171 1.233-.405 2.05-1.486 2.05-.715 0-1.228-.385-1.088-1.522ZM31.665 51.9c1.392 0 2.55-.584 2.55-2 0-.841-.746-1.354-1.594-1.442.685-.152 1.595-.664 1.595-1.697 0-1.057-.91-1.49-1.781-1.49-.685 0-1.26.281-1.571.577l-.233-.488h-.335l-.264 2.13h.35c.334-1.145.809-1.77 1.703-1.77.583 0 1.019.36 1.019 1.017 0 .969-.46 1.577-1.431 1.577h-.537l-.03.384h.52c1.011 0 1.485.385 1.485 1.25 0 .92-.56 1.568-1.508 1.568-.661 0-1.143-.2-1.392-.64.459-.048.762-.368.762-.777 0-.328-.163-.624-.622-.624-.537 0-.809.408-.809.864-.008.849.684 1.562 2.123 1.562ZM47.109 50.203c-.078-.585-.078-1.513-.996-1.513h-.295l-.373 3.09h-1.066l.716-5.988h-1.066l.047-.385c1.252 0 1.905-.04 2.006-.128l.125.128-.35 2.89h.38c1.61 0 .887-3.018 2.73-3.018.35 0 .856.2.879.769 0 .36-.194.825-.801.825-.443 0-.661-.345-.661-.697 0-.064 0-.136.023-.216-.614.488-.497 2.09-1.493 2.57.879.28 1.237.84 1.338 1.64.078.601.085 1.186.583 1.186.288 0 .529-.393.669-1.513h.334c-.163 1.36-.443 2.065-1.47 2.065-.84.008-1.12-.576-1.26-1.705ZM50.507 48.538c.186-1.697 1.236-3.242 2.978-3.242.879 0 1.345.6 1.555 1.297l.879-1.297h.187l-.63 5.3c-.078.584.039.904.396.904.397 0 .654-.392.801-1.641h.342c-.186 1.345-.404 2.065-1.36 2.065-.864 0-1.074-.608-.965-1.513l.086-.712c-.35 1.289-1.128 2.225-2.263 2.225-1.423-.008-2.232-1.313-2.006-3.386Zm4.183 0c.008-.136.04-.272.047-.392.124-1.53-.272-2.442-1.26-2.458-1.096-.008-1.68 1.289-1.843 2.834-.186 1.873.195 2.85 1.089 2.85 1.143.008 1.765-1.321 1.967-2.834ZM28.282 5.228h.918v7.509h-.918V9.31h-4.074v3.426h-.918v-7.51h.918V8.43h4.074V5.228ZM35.98 12.737l-.754-2.306H32.03l-.754 2.306h-.941l2.527-7.51h1.548l2.535 7.51h-.965Zm-2.566-6.54-1.112 3.378h2.636l-1.111-3.379h-.413ZM44.006 14.578v-1.841h-5.933v-7.51h.917v6.645h3.95V5.228h.918v6.644h1.058v2.706h-.91ZM46.121 5.228h.902v6.364h.226l3.39-6.364h1.439v7.509h-.902V6.372h-.226l-3.39 6.365H46.12v-7.51ZM56.969 5.091c1.073 0 1.905.369 2.504 1.105.599.737.902 1.665.902 2.786 0 1.12-.303 2.05-.902 2.786-.599.737-1.439 1.105-2.504 1.105-1.073 0-1.913-.368-2.512-1.105-.599-.736-.894-1.665-.894-2.794s.295-2.057.894-2.794c.599-.72 1.439-1.089 2.512-1.089Zm-1.85 6.045c.42.584 1.026.872 1.85.872.824 0 1.439-.288 1.85-.872.42-.585.623-1.305.623-2.154 0-.856-.202-1.569-.622-2.153-.42-.585-1.027-.873-1.851-.873-.824 0-1.439.288-1.85.873-.42.584-.623 1.305-.623 2.153 0 .857.21 1.577.622 2.154ZM66.86 5.228h.918v7.509h-.918V9.31h-4.075v3.426h-.917v-7.51h.917V8.43h4.075V5.228ZM74.559 12.737l-.755-2.306h-3.196l-.754 2.306h-.94l2.526-7.51h1.548l2.535 7.51h-.964Zm-2.566-6.54L70.88 9.574h2.636l-1.112-3.379h-.412ZM76.044 11.8h.194c.343 0 .6-.096.786-.272.186-.184.326-.552.427-1.113.102-.56.156-1.369.156-2.433V5.228h4.79v7.509h-.917V6.092h-3.002v2.074c0 1.217-.078 2.17-.241 2.834-.163.672-.397 1.129-.7 1.377-.311.24-.739.368-1.283.368h-.202l-.008-.945ZM87.094 12.737H84.07v-7.51h.918v2.867h2.1c.8 0 1.423.208 1.866.616.443.408.66.977.66 1.697 0 .737-.217 1.305-.66 1.713-.428.409-1.05.617-1.859.617Zm-2.107-.84h1.944c1.182 0 1.765-.497 1.765-1.482 0-.984-.59-1.473-1.765-1.473h-1.944v2.954ZM96.084 5.228H97v7.509h-.917V9.31h-4.075v3.426h-.918v-7.51h.918V8.43h4.075V5.228ZM101.753 12.737H98.86v-7.51h.918v2.867h1.975c.801 0 1.423.208 1.866.616.443.408.661.977.661 1.697 0 .737-.218 1.305-.661 1.713-.436.409-1.065.617-1.866.617Zm-1.975-.84h1.804c1.182 0 1.765-.497 1.765-1.482 0-.984-.591-1.473-1.765-1.473h-1.804v2.954Zm5.482-6.67h.917v7.51h-.917v-7.51ZM108.043 5.228h.903v6.364h.225l3.39-6.364H114v7.509h-.902V6.372h-.225l-3.391 6.365h-1.439v-7.51Zm4.013-2.002h.747c-.016.513-.187.913-.514 1.201-.326.288-.754.432-1.275.432-.513 0-.925-.144-1.252-.432-.327-.288-.498-.688-.513-1.2h.746c.008.295.101.528.288.696.187.168.428.256.731.256s.56-.08.747-.256c.194-.168.287-.4.295-.697ZM23.282 26.523v-7.51h.918v3.21h2.2l1.463-3.21h.971l-1.633 3.65 1.727 3.86h-.972l-1.548-3.435h-2.2v3.434h-.926ZM33.127 18.877c1.073 0 1.905.369 2.504 1.105.598.736.902 1.665.902 2.786 0 1.12-.304 2.05-.902 2.786-.6.736-1.439 1.105-2.504 1.105-1.073 0-1.913-.369-2.512-1.105-.599-.737-.894-1.665-.894-2.794s.295-2.058.894-2.794c.599-.72 1.439-1.089 2.512-1.089Zm-1.843 6.044c.42.585 1.026.873 1.85.873.825 0 1.44-.288 1.851-.873.42-.584.622-1.305.622-2.153 0-.857-.202-1.57-.622-2.154-.42-.584-1.026-.872-1.85-.872-.825 0-1.44.288-1.851.872-.42.585-.622 1.305-.622 2.154-.008.857.202 1.577.622 2.153ZM38.026 19.013h3.08c.785 0 1.4.2 1.827.593.428.392.646.936.646 1.649 0 .712-.218 1.273-.646 1.665-.435.4-1.042.592-1.827.592h-2.162v3.01h-.918v-7.509Zm.918 3.659h2.014c1.128 0 1.695-.473 1.695-1.41 0-.936-.567-1.408-1.695-1.408h-2.014v2.818ZM45.04 19.013h5.84v7.51h-.918v-6.645h-4.004v6.645h-.918v-7.51ZM55.01 22.96h.287l1.828-3.947h.956l-3.484 7.51h-.949l1.043-2.25-2.699-5.26h.988l2.03 3.947ZM63.859 24.385h.972c-.156.696-.482 1.249-.98 1.657-.498.408-1.135.616-1.913.616-1.065 0-1.89-.36-2.48-1.088-.592-.72-.887-1.657-.887-2.81 0-1.145.303-2.09.902-2.81.599-.72 1.423-1.089 2.48-1.089.731 0 1.354.184 1.836.56.49.377.808.889.956 1.537h-.972c-.288-.824-.894-1.24-1.827-1.24-.801 0-1.408.288-1.828.872-.42.585-.622 1.305-.622 2.154 0 .864.202 1.585.614 2.161.413.577 1.02.865 1.82.865.506 0 .918-.12 1.244-.368.343-.233.568-.577.685-1.017ZM11.649 26.202c.684-1.144 1.034-2.601 1.034-4.33V6.868c0-1.833.443-3.226 1.345-4.14 1.151-1.176 2.854-1.504 4.176-1.504V0c-2.504 0-4.277.264-5.84 1.777-1.182 1.153-1.726 2.89-1.726 5.092V21.87c0 1.914-.444 3.33-1.338 4.323-.902.993-2.838 1.674-4.222 1.674v1.313c1.384 0 3.32.68 4.222 1.673.894.992 1.338 2.41 1.338 4.323V50.13c0 2.202.544 3.939 1.726 5.092C13.927 56.736 15.7 57 18.204 57v-1.225c-1.322 0-3.025-.328-4.176-1.505-.902-.913-1.345-2.306-1.345-4.139V35.177c0-1.73-.35-3.187-1.034-4.331-.622-1.033-1.525-1.81-2.675-2.322 1.15-.512 2.053-1.289 2.675-2.322Z"
          fill="currentColor"/>
</svg>
